# xmcd CD database file
#
# Track frame offsets:
#	150
#	33892
#	66502
#
# Disc length: 1591 seconds
#
# Revision: 0
# Processed by: cddbd v1.5.2PL0 Copyright (c) Steve Scherf et al.
# Submitted via: CDex 1.51
#
DISCID=22063503
DTITLE=Burnt Friedman - Jaki Liebezeit - Hayden Chisholm - Live in Kristiansand  070901
DYEAR=2007
DGENRE=Jazz
TTITLE0=Broken Wind Repair Kit
TTITLE1=130.9. 
TTITLE2=Obscured By 5 
EXTD=YEAR: 2007
EXTT0=
EXTT1=
EXTT2=
PLAYORDER=
